<svg version="1.1" xmlns="http://www.w3.org/2000/svg" xmlns:xlink="http://www.w3.org/1999/xlink" x="0px" y="0px"
	 viewBox="0 0 130 133" style="enable-background:new 0 0 130 133;" xml:space="preserve">
<g id="outline">
	<g id="b13_1_">
		<path style="fill:#004146;" d="M45.1,100.8L45.1,100.8c0.4,0,0.8,0.1,1.2,0.3c0.6,0.3,0.9,0.8,1.1,1.4s0.1,1.3-0.2,1.8
			c-0.4,0.7-1.2,1.2-2.1,1.2c-0.4,0-0.8-0.1-1.2-0.3c-1.1-0.7-1.5-2.1-0.9-3.3C43.5,101.3,44.3,100.8,45.1,100.8 M45.1,99.8
			c-1.2,0-2.3,0.6-2.9,1.7c-0.9,1.6-0.4,3.7,1.2,4.6c0.5,0.3,1.1,0.5,1.7,0.5c1.2,0,2.3-0.6,2.9-1.7c0.9-1.6,0.4-3.7-1.2-4.6
			C46.3,100,45.7,99.8,45.1,99.8L45.1,99.8z"/>
	</g>
	<g id="b12_1_">
		<path style="fill:#004146;" d="M50.2,92.6c0.3,0,0.6,0.1,0.9,0.2c0.4,0.2,0.7,0.6,0.8,1.1c0.1,0.5,0.1,1-0.2,1.4
			c-0.3,0.5-0.9,0.9-1.6,0.9c-0.3,0-0.6-0.1-0.9-0.2c-0.4-0.2-0.7-0.6-0.8-1.1c-0.1-0.5-0.1-1,0.2-1.4
			C48.9,92.9,49.5,92.6,50.2,92.6 M50.2,91.6c-1,0-1.9,0.5-2.4,1.4c-0.4,0.6-0.5,1.4-0.3,2.1c0.2,0.7,0.7,1.3,1.3,1.7
			c0.4,0.2,0.9,0.4,1.4,0.4c1,0,2-0.5,2.5-1.4c0.4-0.6,0.5-1.4,0.3-2.1c-0.2-0.7-0.7-1.3-1.3-1.7C51.2,91.7,50.7,91.6,50.2,91.6
			L50.2,91.6z"/>
	</g>
	<g id="b11_1_">
		<path style="fill:#004146;" d="M55.3,84.4c0.2,0,0.4,0.1,0.6,0.2c0.3,0.2,0.5,0.4,0.6,0.7c0.1,0.3,0,0.6-0.1,0.9
			c-0.2,0.4-0.6,0.6-1.1,0.6c-0.2,0-0.4-0.1-0.6-0.1c-0.6-0.3-0.8-1.1-0.4-1.7C54.4,84.6,54.8,84.4,55.3,84.4 M55.3,83.4
			c-0.8,0-1.5,0.4-1.9,1.1c-0.6,1.1-0.2,2.4,0.8,3c0.3,0.2,0.7,0.3,1.1,0.3c0.8,0,1.6-0.4,2-1.1c0.3-0.5,0.4-1.1,0.2-1.7
			c-0.2-0.6-0.5-1.1-1-1.3C56,83.5,55.7,83.4,55.3,83.4L55.3,83.4z"/>
	</g>
	<g id="b10_1_">
		<path style="fill:#004146;" d="M59.3,77.5L59.3,77.5c0.2,0,0.4,0,0.5,0.1c0.5,0.3,0.7,0.9,0.4,1.4c-0.2,0.3-0.5,0.5-0.9,0.5
			c-0.2,0-0.4,0-0.5-0.1c-0.2-0.1-0.4-0.4-0.5-0.6c-0.1-0.3,0-0.5,0.1-0.8C58.6,77.7,59,77.5,59.3,77.5 M59.3,76.5
			c-0.7,0-1.4,0.4-1.8,1c-0.6,1-0.2,2.2,0.7,2.8c0.3,0.2,0.7,0.3,1,0.3c0.7,0,1.4-0.4,1.8-1c0.6-1,0.2-2.2-0.7-2.8
			C60,76.6,59.7,76.5,59.3,76.5L59.3,76.5z"/>
	</g>
	<g id="b9_1_">
		<path style="fill:#004146;" d="M65.4,116.2c2,0,3.6,1.6,3.6,3.6c0,2-1.6,3.6-3.6,3.6c-2,0-3.6-1.6-3.6-3.6
			C61.9,117.7,63.5,116.2,65.4,116.2 M65.4,115.2c-2.5,0-4.6,2-4.6,4.6c0,2.5,2,4.6,4.6,4.6c2.5,0,4.6-2,4.6-4.6
			C70,117.2,67.9,115.2,65.4,115.2L65.4,115.2z"/>
	</g>
	<g id="b8_1_">
		<path style="fill:#004146;" d="M65.4,106.3c1.3,0,2.4,1.1,2.4,2.4c0,1.3-1.1,2.4-2.4,2.4c-1.3,0-2.4-1.1-2.4-2.4
			S64.1,106.3,65.4,106.3 M65.4,105.3c-1.9,0-3.4,1.5-3.4,3.4s1.5,3.4,3.4,3.4c1.9,0,3.4-1.5,3.4-3.4
			C68.8,106.8,67.3,105.3,65.4,105.3L65.4,105.3z"/>
	</g>
	<g id="b7_1_">
		<path style="fill:#004146;" d="M65.4,96.7c1,0,1.8,0.8,1.8,1.8s-0.8,1.8-1.8,1.8c-1,0-1.8-0.8-1.8-1.8S64.4,96.7,65.4,96.7
			 M65.4,95.7c-1.5,0-2.8,1.3-2.8,2.8s1.3,2.8,2.8,2.8c1.5,0,2.8-1.3,2.8-2.8S67,95.7,65.4,95.7L65.4,95.7z"/>
	</g>
	<g id="b6_1_">
		<path style="fill:#004146;" d="M65.4,87.1c0.7,0,1.2,0.5,1.2,1.2s-0.5,1.2-1.2,1.2c-0.7,0-1.2-0.5-1.2-1.2S64.7,87.1,65.4,87.1
			 M65.4,86.1c-1.2,0-2.2,1-2.2,2.2s1,2.2,2.2,2.2c1.2,0,2.2-1,2.2-2.2S66.6,86.1,65.4,86.1L65.4,86.1z"/>
	</g>
	<g id="b5_1_">
		<path style="fill:#004146;" d="M65.4,79.2c0.6,0,1,0.5,1,1s-0.5,1-1,1s-1-0.5-1-1S64.9,79.2,65.4,79.2 M65.4,78.2
			c-1.1,0-2,0.9-2,2c0,1.1,0.9,2,2,2c1.1,0,2-0.9,2-2C67.5,79.1,66.5,78.2,65.4,78.2L65.4,78.2z"/>
	</g>
	<g id="b4_1_">
		<path style="fill:#004146;" d="M85.7,100.8c0.9,0,1.6,0.5,2.1,1.2c0.3,0.6,0.4,1.2,0.2,1.8s-0.6,1.1-1.1,1.4
			c-0.4,0.2-0.8,0.3-1.2,0.3c-0.9,0-1.6-0.5-2.1-1.2c-0.3-0.6-0.4-1.2-0.2-1.8c0.2-0.6,0.6-1.1,1.1-1.4
			C84.9,100.9,85.3,100.8,85.7,100.8 M85.7,99.8c-0.6,0-1.2,0.1-1.7,0.5c-1.6,0.9-2.2,3-1.2,4.6c0.6,1.1,1.8,1.7,2.9,1.7
			c0.6,0,1.2-0.1,1.7-0.5c1.6-0.9,2.2-3,1.2-4.6C88,100.4,86.9,99.8,85.7,99.8L85.7,99.8z"/>
	</g>
	<g id="b3_1_">
		<path style="fill:#004146;" d="M80.7,92.6c0.6,0,1.2,0.3,1.6,0.9c0.2,0.4,0.3,0.9,0.2,1.4c-0.1,0.5-0.4,0.9-0.8,1.1
			c-0.3,0.2-0.6,0.2-0.9,0.2c-0.6,0-1.2-0.3-1.6-0.9c-0.2-0.4-0.3-0.9-0.2-1.4c0.1-0.5,0.4-0.9,0.8-1.1C80,92.7,80.3,92.6,80.7,92.6
			 M80.7,91.6c-0.5,0-1,0.1-1.4,0.4c-0.6,0.4-1.1,1-1.3,1.7c-0.2,0.7-0.1,1.5,0.3,2.1c0.5,0.9,1.4,1.4,2.4,1.4c0.5,0,1-0.1,1.4-0.4
			c0.6-0.4,1.1-1,1.3-1.7c0.2-0.7,0.1-1.5-0.3-2.1C82.6,92.1,81.7,91.6,80.7,91.6L80.7,91.6z"/>
	</g>
	<g id="b2_1_">
		<path style="fill:#004146;" d="M75.6,84.4c0.4,0,0.8,0.2,1.1,0.6c0.2,0.3,0.2,0.6,0.1,0.9c-0.1,0.3-0.3,0.6-0.6,0.7
			c-0.2,0.1-0.4,0.1-0.6,0.1c-0.5,0-0.9-0.2-1.1-0.6c-0.2-0.3-0.2-0.6-0.1-0.9c0.1-0.3,0.3-0.6,0.6-0.7
			C75.2,84.4,75.4,84.4,75.6,84.4 M75.6,83.4c-0.4,0-0.8,0.1-1.1,0.3c-0.5,0.3-0.9,0.8-1,1.3c-0.2,0.6-0.1,1.2,0.2,1.7
			c0.4,0.7,1.2,1.1,2,1.1c0.4,0,0.7-0.1,1.1-0.3c1.1-0.6,1.4-2,0.8-3C77.1,83.8,76.4,83.4,75.6,83.4L75.6,83.4z"/>
	</g>
	<g id="b1_1_">
		<path style="fill:#004146;" d="M71.5,77.5c0.4,0,0.7,0.2,0.9,0.5c0.3,0.5,0.1,1.1-0.4,1.4c-0.2,0.1-0.3,0.1-0.5,0.1
			c-0.4,0-0.7-0.2-0.9-0.5c-0.3-0.5-0.1-1.1,0.4-1.4C71.2,77.6,71.3,77.5,71.5,77.5 M71.5,76.5c-0.3,0-0.7,0.1-1,0.3
			c-1,0.6-1.3,1.8-0.7,2.8c0.4,0.7,1.1,1,1.8,1c0.3,0,0.7-0.1,1-0.3c1-0.6,1.3-1.8,0.7-2.8C72.9,76.9,72.2,76.5,71.5,76.5L71.5,76.5
			z"/>
	</g>
	<g id="t13_1_">
		<path style="fill:#004146;" d="M85.7,30.4L85.7,30.4c0.4,0,0.8,0.1,1.2,0.3c0.6,0.3,0.9,0.8,1.1,1.4s0.1,1.3-0.2,1.8
			c-0.4,0.7-1.2,1.2-2.1,1.2c-0.4,0-0.8-0.1-1.2-0.3c-0.6-0.3-0.9-0.8-1.1-1.4c-0.2-0.6-0.1-1.3,0.2-1.8
			C84.1,30.9,84.9,30.4,85.7,30.4 M85.7,29.4c-1.2,0-2.3,0.6-2.9,1.7c-0.9,1.6-0.4,3.7,1.2,4.6c0.5,0.3,1.1,0.5,1.7,0.5
			c1.2,0,2.3-0.6,2.9-1.7c0.9-1.6,0.4-3.7-1.2-4.6C86.9,29.6,86.3,29.4,85.7,29.4L85.7,29.4z"/>
	</g>
	<g id="t12_1_">
		<path style="fill:#004146;" d="M80.7,39.8c0.3,0,0.6,0.1,0.9,0.2c0.4,0.2,0.7,0.6,0.8,1.1c0.1,0.5,0.1,1-0.2,1.4
			c-0.3,0.5-0.9,0.9-1.6,0.9c-0.3,0-0.6-0.1-0.9-0.2c-0.4-0.2-0.7-0.6-0.8-1.1c-0.1-0.5-0.1-1,0.2-1.4C79.4,40.2,80,39.8,80.7,39.8
			 M80.7,38.8c-1,0-1.9,0.5-2.4,1.4c-0.4,0.6-0.5,1.4-0.3,2.1c0.2,0.7,0.7,1.3,1.3,1.7c0.4,0.2,0.9,0.4,1.4,0.4c1,0,2-0.5,2.5-1.4
			c0.4-0.6,0.5-1.4,0.3-2.1c-0.2-0.7-0.7-1.3-1.3-1.7C81.6,38.9,81.1,38.8,80.7,38.8L80.7,38.8z"/>
	</g>
	<g id="t11_1_">
		<path style="fill:#004146;" d="M75.6,49.2c0.2,0,0.4,0.1,0.6,0.2c0.3,0.2,0.5,0.4,0.6,0.7c0.1,0.3,0,0.6-0.1,0.9
			c-0.2,0.4-0.6,0.6-1.1,0.6c-0.2,0-0.4-0.1-0.6-0.1c-0.3-0.2-0.5-0.4-0.6-0.7c-0.1-0.3,0-0.6,0.1-0.9
			C74.7,49.4,75.1,49.2,75.6,49.2 M75.6,48.2c-0.8,0-1.5,0.4-1.9,1.1c-0.3,0.5-0.4,1.1-0.2,1.7c0.2,0.6,0.5,1.1,1,1.3
			c0.3,0.2,0.7,0.3,1.1,0.3c0.8,0,1.6-0.4,2-1.1c0.6-1.1,0.2-2.4-0.8-3C76.4,48.3,76,48.2,75.6,48.2L75.6,48.2z"/>
	</g>
	<g id="t10_1_">
		<path style="fill:#004146;" d="M71.5,56.4L71.5,56.4c0.2,0,0.4,0,0.5,0.1c0.5,0.3,0.7,0.9,0.4,1.4c-0.2,0.3-0.5,0.5-0.9,0.5
			c-0.2,0-0.4,0-0.5-0.1c-0.2-0.1-0.4-0.4-0.5-0.6c-0.1-0.3,0-0.5,0.1-0.8C70.8,56.6,71.1,56.4,71.5,56.4 M71.5,55.4
			c-0.7,0-1.4,0.4-1.8,1c-0.6,1-0.2,2.2,0.7,2.8c0.3,0.2,0.7,0.3,1,0.3c0.7,0,1.4-0.4,1.8-1c0.6-1,0.2-2.2-0.7-2.8
			C72.2,55.5,71.9,55.4,71.5,55.4L71.5,55.4z"/>
	</g>
	<g id="t9_1_">
		<path style="fill:#004146;" d="M65.4,12.5c2,0,3.6,1.6,3.6,3.6s-1.6,3.6-3.6,3.6c-2,0-3.6-1.6-3.6-3.6S63.5,12.5,65.4,12.5
			 M65.4,11.5c-2.5,0-4.6,2-4.6,4.6s2,4.6,4.6,4.6c2.5,0,4.6-2,4.6-4.6S67.9,11.5,65.4,11.5L65.4,11.5z"/>
	</g>
	<g id="t8_1_">
		<path style="fill:#004146;" d="M65.4,25c1.3,0,2.4,1.1,2.4,2.4s-1.1,2.4-2.4,2.4S63,28.7,63,27.4S64.1,25,65.4,25 M65.4,24
			c-1.9,0-3.4,1.5-3.4,3.4c0,1.9,1.5,3.4,3.4,3.4s3.4-1.5,3.4-3.4C68.8,25.5,67.3,24,65.4,24L65.4,24z"/>
	</g>
	<g id="t7_1_">
		<path style="fill:#004146;" d="M65.4,35.7c1,0,1.8,0.8,1.8,1.8s-0.8,1.8-1.8,1.8c-1,0-1.8-0.8-1.8-1.8S64.4,35.7,65.4,35.7
			 M65.4,34.7c-1.5,0-2.8,1.3-2.8,2.8s1.3,2.8,2.8,2.8c1.5,0,2.8-1.3,2.8-2.8S67,34.7,65.4,34.7L65.4,34.7z"/>
	</g>
	<g id="t6_1_">
		<path style="fill:#004146;" d="M65.4,46.5c0.7,0,1.2,0.5,1.2,1.2c0,0.7-0.5,1.2-1.2,1.2c-0.7,0-1.2-0.5-1.2-1.2
			C64.2,47,64.7,46.5,65.4,46.5 M65.4,45.5c-1.2,0-2.2,1-2.2,2.2c0,1.2,1,2.2,2.2,2.2c1.2,0,2.2-1,2.2-2.2
			C67.6,46.5,66.6,45.5,65.4,45.5L65.4,45.5z"/>
	</g>
	<g id="t5_1_">
		<path style="fill:#004146;" d="M65.4,54.8c0.6,0,1,0.5,1,1c0,0.6-0.5,1-1,1s-1-0.5-1-1C64.4,55.2,64.9,54.8,65.4,54.8 M65.4,53.8
			c-1.1,0-2,0.9-2,2c0,1.1,0.9,2,2,2c1.1,0,2-0.9,2-2C67.5,54.7,66.5,53.8,65.4,53.8L65.4,53.8z"/>
	</g>
	<g id="t4_1_">
		<path style="fill:#004146;" d="M45.1,30.4c0.9,0,1.6,0.5,2.1,1.2c0.3,0.6,0.4,1.2,0.2,1.8s-0.6,1.1-1.1,1.4
			c-0.4,0.2-0.8,0.3-1.2,0.3c-0.9,0-1.6-0.5-2.1-1.2c-0.7-1.1-0.3-2.6,0.9-3.3C44.3,30.5,44.7,30.4,45.1,30.4 M45.1,29.4
			c-0.6,0-1.2,0.1-1.7,0.5c-1.6,0.9-2.2,3-1.2,4.6c0.6,1.1,1.8,1.7,2.9,1.7c0.6,0,1.2-0.1,1.7-0.5c1.6-0.9,2.2-3,1.2-4.6
			C47.4,30,46.3,29.4,45.1,29.4L45.1,29.4z"/>
	</g>
	<g id="t3_1_">
		<path style="fill:#004146;" d="M50.2,39.8c0.6,0,1.2,0.3,1.6,0.9c0.2,0.4,0.3,0.9,0.2,1.4c-0.1,0.5-0.4,0.9-0.8,1.1
			c-0.3,0.2-0.6,0.2-0.9,0.2c-0.6,0-1.2-0.3-1.6-0.9c-0.5-0.9-0.2-2,0.7-2.5C49.6,39.9,49.9,39.8,50.2,39.8 M50.2,38.8
			c-0.5,0-1,0.1-1.4,0.4c-1.3,0.8-1.8,2.5-1,3.8c0.5,0.9,1.4,1.4,2.4,1.4c0.5,0,1-0.1,1.4-0.4c0.6-0.4,1.1-1,1.3-1.7
			c0.2-0.7,0.1-1.5-0.3-2.1C52.1,39.3,51.2,38.8,50.2,38.8L50.2,38.8z"/>
	</g>
	<g id="t2_1_">
		<path style="fill:#004146;" d="M55.3,49.2c0.4,0,0.8,0.2,1.1,0.6c0.2,0.3,0.2,0.6,0.1,0.9c-0.1,0.3-0.3,0.6-0.6,0.7
			c-0.2,0.1-0.4,0.1-0.6,0.1c-0.5,0-0.9-0.2-1.1-0.6c-0.2-0.3-0.2-0.6-0.1-0.9c0.1-0.3,0.3-0.6,0.6-0.7C54.8,49.2,55,49.2,55.3,49.2
			 M55.3,48.2c-0.4,0-0.8,0.1-1.1,0.3c-1.1,0.6-1.4,2-0.8,3c0.4,0.7,1.2,1.1,2,1.1c0.4,0,0.7-0.1,1.1-0.3c0.5-0.3,0.9-0.8,1-1.3
			c0.2-0.6,0.1-1.2-0.2-1.7C56.8,48.6,56.1,48.2,55.3,48.2L55.3,48.2z"/>
	</g>
	<g id="t1_1_">
		<path style="fill:#004146;" d="M59.3,56.4c0.4,0,0.7,0.2,0.9,0.5c0.1,0.2,0.2,0.5,0.1,0.8c-0.1,0.3-0.2,0.5-0.5,0.6
			c-0.2,0.1-0.3,0.1-0.5,0.1c-0.4,0-0.7-0.2-0.9-0.5c-0.3-0.5-0.1-1.1,0.4-1.4C59,56.5,59.1,56.4,59.3,56.4 M59.3,55.4
			c-0.3,0-0.7,0.1-1,0.3c-1,0.6-1.3,1.8-0.7,2.8c0.4,0.7,1.1,1,1.8,1c0.3,0,0.7-0.1,1-0.3c1-0.6,1.3-1.8,0.7-2.8
			C60.7,55.8,60,55.4,59.3,55.4L59.3,55.4z"/>
	</g>
	<g id="l13_1_">
		<path style="fill:#008390;" d="M54.9,73.1c0.4,0,0.7,0.2,0.9,0.5c0.3,0.5,0.1,1.1-0.4,1.4c-0.2,0.1-0.3,0.1-0.5,0.1
			c-0.4,0-0.7-0.2-0.9-0.5c-0.3-0.5-0.1-1.1,0.4-1.4C54.5,73.1,54.7,73.1,54.9,73.1 M54.9,72.1c-0.3,0-0.7,0.1-1,0.3
			c-1,0.6-1.3,1.8-0.7,2.8c0.4,0.7,1.1,1,1.8,1c0.3,0,0.7-0.1,1-0.3c1-0.6,1.3-1.8,0.7-2.8C56.2,72.4,55.6,72.1,54.9,72.1L54.9,72.1
			z"/>
	</g>
	<g id="l12_1_">
		<path style="fill:#008390;" d="M47.8,76.9c0.4,0,0.8,0.2,1.1,0.6c0.2,0.3,0.2,0.6,0.1,0.9c-0.1,0.3-0.3,0.6-0.6,0.7
			c-0.2,0.1-0.4,0.1-0.6,0.1c-0.5,0-0.9-0.2-1.1-0.6c-0.2-0.3-0.2-0.6-0.1-0.9c0.1-0.3,0.3-0.6,0.6-0.7C47.4,77,47.6,76.9,47.8,76.9
			 M47.8,75.9c-0.4,0-0.8,0.1-1.1,0.3c-0.5,0.3-0.9,0.8-1,1.3c-0.2,0.6-0.1,1.2,0.2,1.7c0.4,0.7,1.2,1.1,2,1.1
			c0.4,0,0.7-0.1,1.1-0.3c0.5-0.3,0.9-0.8,1-1.3c0.2-0.6,0.1-1.2-0.2-1.7C49.4,76.4,48.6,75.9,47.8,75.9L47.8,75.9z"/>
	</g>
	<g id="l11_1_">
		<path style="fill:#008390;" d="M39,81.4c0.6,0,1.2,0.3,1.6,0.9c0.2,0.4,0.3,0.9,0.2,1.4s-0.4,0.9-0.8,1.1C39.7,85,39.3,85,39,85
			c-0.6,0-1.2-0.3-1.6-0.9c-0.2-0.4-0.3-0.9-0.2-1.4c0.1-0.5,0.4-0.9,0.8-1.1C38.4,81.5,38.7,81.4,39,81.4 M39,80.4
			c-0.5,0-1,0.1-1.4,0.4c-1.3,0.8-1.8,2.5-1,3.8C37.1,85.5,38,86,39,86c0.5,0,1-0.1,1.4-0.4c1.3-0.8,1.8-2.5,1-3.8
			C41,81,40,80.4,39,80.4L39,80.4z"/>
	</g>
	<g id="l10_1_">
		<path style="fill:#008390;" d="M30.2,85.9c0.9,0,1.6,0.5,2.1,1.2c0.3,0.6,0.4,1.2,0.2,1.8c-0.2,0.6-0.6,1.1-1.1,1.4
			c-0.4,0.2-0.8,0.3-1.2,0.3c-0.9,0-1.6-0.5-2.1-1.2c-0.7-1.1-0.3-2.6,0.9-3.3C29.4,86,29.8,85.9,30.2,85.9 M30.2,84.9
			c-0.6,0-1.2,0.1-1.7,0.5c-1.6,0.9-2.2,3-1.2,4.6c0.6,1.1,1.8,1.7,2.9,1.7c0.6,0,1.2-0.1,1.7-0.5c1.6-0.9,2.2-3,1.2-4.6
			C32.5,85.5,31.4,84.9,30.2,84.9L30.2,84.9z"/>
	</g>
	<g id="l9_1_">
		<path style="fill:#008390;" d="M53.2,67c0.6,0,1,0.5,1,1s-0.5,1-1,1s-1-0.5-1-1S52.7,67,53.2,67 M53.2,66c-1.1,0-2,0.9-2,2
			c0,1.1,0.9,2,2,2c1.1,0,2-0.9,2-2C55.3,66.9,54.4,66,53.2,66L53.2,66z"/>
	</g>
	<g id="l8_1_">
		<path style="fill:#008390;" d="M45.1,66.8c0.7,0,1.2,0.5,1.2,1.2s-0.5,1.2-1.2,1.2s-1.2-0.5-1.2-1.2S44.4,66.8,45.1,66.8
			 M45.1,65.8c-1.2,0-2.2,1-2.2,2.2s1,2.2,2.2,2.2c1.2,0,2.2-1,2.2-2.2S46.3,65.8,45.1,65.8L45.1,65.8z"/>
	</g>
	<g id="l7_1_">
		<path style="fill:#008390;" d="M34.9,66.2c1,0,1.8,0.8,1.8,1.8s-0.8,1.8-1.8,1.8c-1,0-1.8-0.8-1.8-1.8S34,66.2,34.9,66.2
			 M34.9,65.2c-1.5,0-2.8,1.3-2.8,2.8s1.3,2.8,2.8,2.8c1.5,0,2.8-1.3,2.8-2.8S36.5,65.2,34.9,65.2L34.9,65.2z"/>
	</g>
	<g id="l6_1_">
		<path style="fill:#008390;" d="M24.8,65.6c1.3,0,2.4,1.1,2.4,2.4s-1.1,2.4-2.4,2.4s-2.4-1.1-2.4-2.4S23.5,65.6,24.8,65.6
			 M24.8,64.6c-1.9,0-3.4,1.5-3.4,3.4c0,1.9,1.5,3.4,3.4,3.4c1.9,0,3.4-1.5,3.4-3.4C28.2,66.1,26.7,64.6,24.8,64.6L24.8,64.6z"/>
	</g>
	<g id="l5_1_">
		<path style="fill:#008390;" d="M13.6,64.3c2,0,3.6,1.6,3.6,3.6s-1.6,3.6-3.6,3.6S10,69.8,10,67.9S11.6,64.3,13.6,64.3 M13.6,63.3
			c-2.5,0-4.6,2-4.6,4.6c0,2.5,2,4.6,4.6,4.6c2.5,0,4.6-2,4.6-4.6C18.1,65.4,16.1,63.3,13.6,63.3L13.6,63.3z"/>
	</g>
	<g id="l4_1_">
		<path style="fill:#008390;" d="M54.9,60.9L54.9,60.9c0.2,0,0.4,0,0.5,0.1c0.2,0.1,0.4,0.4,0.5,0.6c0.1,0.3,0,0.5-0.1,0.8
			c-0.2,0.3-0.5,0.5-0.9,0.5c-0.2,0-0.4,0-0.5-0.1c-0.2-0.1-0.4-0.4-0.5-0.6s0-0.5,0.1-0.8C54.2,61.1,54.5,60.9,54.9,60.9
			 M54.9,59.9c-0.7,0-1.4,0.4-1.8,1c-0.6,1-0.2,2.2,0.7,2.8c0.3,0.2,0.7,0.3,1,0.3c0.7,0,1.4-0.4,1.8-1c0.6-1,0.2-2.2-0.7-2.8
			C55.6,60,55.2,59.9,54.9,59.9L54.9,59.9z"/>
	</g>
	<g id="l3_1_">
		<path style="fill:#008390;" d="M47.8,56.6c0.2,0,0.4,0.1,0.6,0.2c0.3,0.2,0.5,0.4,0.6,0.7c0.1,0.3,0,0.6-0.1,0.9
			c-0.2,0.4-0.6,0.6-1.1,0.6c-0.2,0-0.4-0.1-0.6-0.1c-0.3-0.2-0.5-0.4-0.6-0.7c-0.1-0.3,0-0.6,0.1-0.9C47,56.9,47.4,56.6,47.8,56.6
			 M47.8,55.6c-0.8,0-1.5,0.4-1.9,1.1c-0.3,0.5-0.4,1.1-0.2,1.7c0.2,0.6,0.5,1.1,1,1.3c0.3,0.2,0.7,0.3,1.1,0.3c0.8,0,1.6-0.4,2-1.1
			c0.3-0.5,0.4-1.1,0.2-1.7c-0.2-0.6-0.5-1.1-1-1.3C48.6,55.7,48.2,55.6,47.8,55.6L47.8,55.6z"/>
	</g>
	<g id="l2_1_">
		<path style="fill:#008390;" d="M39,51c0.3,0,0.6,0.1,0.9,0.2c0.4,0.2,0.7,0.6,0.8,1.1c0.1,0.5,0.1,1-0.2,1.4
			c-0.3,0.5-0.9,0.9-1.6,0.9c-0.3,0-0.6-0.1-0.9-0.2c-0.9-0.5-1.2-1.6-0.7-2.5C37.8,51.3,38.4,51,39,51 M39,50c-1,0-1.9,0.5-2.4,1.4
			c-0.8,1.3-0.3,3.1,1,3.8c0.4,0.2,0.9,0.4,1.4,0.4c1,0,2-0.5,2.5-1.4c0.8-1.3,0.3-3.1-1-3.8C40,50.1,39.5,50,39,50L39,50z"/>
	</g>
	<g id="l1_1_">
		<path style="fill:#008390;" d="M30.2,45.3L30.2,45.3c0.4,0,0.8,0.1,1.2,0.3c1.1,0.7,1.5,2.1,0.9,3.3c-0.4,0.7-1.2,1.2-2.1,1.2
			c-0.4,0-0.8-0.1-1.2-0.3c-1.1-0.7-1.5-2.1-0.9-3.3C28.6,45.8,29.4,45.3,30.2,45.3 M30.2,44.3c-1.2,0-2.3,0.6-2.9,1.7
			c-0.9,1.6-0.4,3.7,1.2,4.6c0.5,0.3,1.1,0.5,1.7,0.5c1.2,0,2.3-0.6,2.9-1.7c0.9-1.6,0.4-3.7-1.2-4.6C31.4,44.4,30.8,44.3,30.2,44.3
			L30.2,44.3z"/>
	</g>
	<g id="r13_1_">
		<path style="fill:#008390;" d="M100.6,85.9L100.6,85.9c0.4,0,0.8,0.1,1.2,0.3c1.1,0.7,1.5,2.1,0.9,3.3c-0.4,0.7-1.2,1.2-2.1,1.2
			c-0.4,0-0.8-0.1-1.2-0.3c-0.6-0.3-0.9-0.8-1.1-1.4s-0.1-1.3,0.2-1.8C99,86.4,99.8,85.9,100.6,85.9 M100.6,84.9
			c-1.2,0-2.3,0.6-2.9,1.7c-0.9,1.6-0.4,3.7,1.2,4.6c0.5,0.3,1.1,0.5,1.7,0.5c1.2,0,2.3-0.6,2.9-1.7c0.9-1.6,0.4-3.7-1.2-4.6
			C101.8,85.1,101.2,84.9,100.6,84.9L100.6,84.9z"/>
	</g>
	<g id="r12_1_">
		<path style="fill:#008390;" d="M91.8,81.4c0.3,0,0.6,0.1,0.9,0.2c0.9,0.5,1.2,1.6,0.7,2.5c-0.3,0.5-0.9,0.9-1.6,0.9
			c-0.3,0-0.6-0.1-0.9-0.2c-0.4-0.2-0.7-0.6-0.8-1.1c-0.1-0.5-0.1-1,0.2-1.4C90.6,81.8,91.2,81.4,91.8,81.4 M91.8,80.4
			c-1,0-1.9,0.5-2.4,1.4c-0.4,0.6-0.5,1.4-0.3,2.1c0.2,0.7,0.7,1.3,1.3,1.7c0.4,0.2,0.9,0.4,1.4,0.4c1,0,2-0.5,2.5-1.4
			c0.8-1.3,0.3-3.1-1-3.8C92.8,80.6,92.3,80.4,91.8,80.4L91.8,80.4z"/>
	</g>
	<g id="r11_1_">
		<path style="fill:#008390;" d="M83,76.9c0.2,0,0.4,0.1,0.6,0.2c0.3,0.2,0.5,0.4,0.6,0.7c0.1,0.3,0,0.6-0.1,0.9
			c-0.2,0.4-0.6,0.6-1.1,0.6c-0.2,0-0.4-0.1-0.6-0.1c-0.3-0.2-0.5-0.4-0.6-0.7c-0.1-0.3,0-0.6,0.1-0.9C82.2,77.2,82.6,76.9,83,76.9
			 M83,75.9c-0.8,0-1.5,0.4-1.9,1.1c-0.3,0.5-0.4,1.1-0.2,1.7c0.2,0.6,0.5,1.1,1,1.3c0.3,0.2,0.7,0.3,1.1,0.3c0.8,0,1.6-0.4,2-1.1
			c0.3-0.5,0.4-1.1,0.2-1.7c-0.2-0.6-0.5-1.1-1-1.3C83.8,76,83.4,75.9,83,75.9L83,75.9z"/>
	</g>
	<g id="r10_1_">
		<path style="fill:#008390;" d="M76,73.1L76,73.1c0.2,0,0.4,0,0.5,0.1c0.2,0.1,0.4,0.4,0.5,0.6c0.1,0.3,0,0.5-0.1,0.8
			c-0.2,0.3-0.5,0.5-0.9,0.5c-0.2,0-0.4,0-0.5-0.1c-0.5-0.3-0.7-0.9-0.4-1.4C75.3,73.3,75.6,73.1,76,73.1 M76,72.1
			c-0.7,0-1.4,0.4-1.8,1c-0.6,1-0.2,2.2,0.7,2.8c0.3,0.2,0.7,0.3,1,0.3c0.7,0,1.4-0.4,1.8-1c0.6-1,0.2-2.2-0.7-2.8
			C76.7,72.2,76.3,72.1,76,72.1L76,72.1z"/>
	</g>
	<g id="r9_1_">
		<path style="fill:#008390;" d="M117.3,64.3c2,0,3.6,1.6,3.6,3.6s-1.6,3.6-3.6,3.6s-3.6-1.6-3.6-3.6S115.3,64.3,117.3,64.3
			 M117.3,63.3c-2.5,0-4.6,2-4.6,4.6c0,2.5,2,4.6,4.6,4.6c2.5,0,4.6-2,4.6-4.6C121.8,65.4,119.8,63.3,117.3,63.3L117.3,63.3z"/>
	</g>
	<g id="r8_1_">
		<path style="fill:#008390;" d="M106.1,65.6c1.3,0,2.4,1.1,2.4,2.4s-1.1,2.4-2.4,2.4s-2.4-1.1-2.4-2.4S104.7,65.6,106.1,65.6
			 M106.1,64.6c-1.9,0-3.4,1.5-3.4,3.4s1.5,3.4,3.4,3.4s3.4-1.5,3.4-3.4S107.9,64.6,106.1,64.6L106.1,64.6z"/>
	</g>
	<g id="r7_1_">
		<path style="fill:#008390;" d="M95.9,66.2c1,0,1.8,0.8,1.8,1.8s-0.8,1.8-1.8,1.8S94.1,69,94.1,68S94.9,66.2,95.9,66.2 M95.9,65.2
			c-1.5,0-2.8,1.3-2.8,2.8s1.3,2.8,2.8,2.8c1.5,0,2.8-1.3,2.8-2.8S97.4,65.2,95.9,65.2L95.9,65.2z"/>
	</g>
	<g id="r6_1_">
		<path style="fill:#008390;" d="M85.7,66.8c0.7,0,1.2,0.5,1.2,1.2s-0.5,1.2-1.2,1.2s-1.2-0.5-1.2-1.2S85.1,66.8,85.7,66.8
			 M85.7,65.8c-1.2,0-2.2,1-2.2,2.2s1,2.2,2.2,2.2c1.2,0,2.2-1,2.2-2.2S87,65.8,85.7,65.8L85.7,65.8z"/>
	</g>
	<g id="r5_1_">
		<path style="fill:#008390;" d="M77.6,67c0.6,0,1,0.5,1,1s-0.5,1-1,1s-1-0.5-1-1S77,67,77.6,67 M77.6,66c-1.1,0-2,0.9-2,2
			c0,1.1,0.9,2,2,2s2-0.9,2-2C79.6,66.9,78.7,66,77.6,66L77.6,66z"/>
	</g>
	<g id="r4_1_">
		<path style="fill:#008390;" d="M100.6,45.3c0.9,0,1.6,0.5,2.1,1.2c0.7,1.1,0.3,2.6-0.9,3.3c-0.4,0.2-0.8,0.3-1.2,0.3
			c-0.9,0-1.6-0.5-2.1-1.2c-0.7-1.1-0.3-2.6,0.9-3.3C99.8,45.4,100.2,45.3,100.6,45.3 M100.6,44.3c-0.6,0-1.2,0.1-1.7,0.5
			c-1.6,0.9-2.2,3-1.2,4.6c0.6,1.1,1.8,1.7,2.9,1.7c0.6,0,1.2-0.1,1.7-0.5c1.6-0.9,2.2-3,1.2-4.6C102.9,44.9,101.8,44.3,100.6,44.3
			L100.6,44.3z"/>
	</g>
	<g id="r3_1_">
		<path style="fill:#008390;" d="M91.8,51c0.6,0,1.2,0.3,1.6,0.9c0.5,0.9,0.2,2-0.7,2.5c-0.3,0.2-0.6,0.2-0.9,0.2
			c-0.6,0-1.2-0.3-1.6-0.9c-0.2-0.4-0.3-0.9-0.2-1.4c0.1-0.5,0.4-0.9,0.8-1.1C91.2,51,91.5,51,91.8,51 M91.8,50
			c-0.5,0-1,0.1-1.4,0.4c-0.6,0.4-1.1,1-1.3,1.7s-0.1,1.5,0.3,2.1c0.5,0.9,1.4,1.4,2.4,1.4c0.5,0,1-0.1,1.4-0.4
			c1.3-0.8,1.8-2.5,1-3.8C93.7,50.5,92.8,50,91.8,50L91.8,50z"/>
	</g>
	<g id="r2_1_">
		<path style="fill:#008390;" d="M83,56.6c0.4,0,0.8,0.2,1.1,0.6c0.2,0.3,0.2,0.6,0.1,0.9c-0.1,0.3-0.3,0.6-0.6,0.7
			c-0.2,0.1-0.4,0.1-0.6,0.1c-0.5,0-0.9-0.2-1.1-0.6c-0.2-0.3-0.2-0.6-0.1-0.9c0.1-0.3,0.3-0.6,0.6-0.7C82.6,56.7,82.8,56.6,83,56.6
			 M83,55.6c-0.4,0-0.8,0.1-1.1,0.3c-0.5,0.3-0.9,0.8-1,1.3c-0.2,0.6-0.1,1.2,0.2,1.7c0.4,0.7,1.2,1.1,2,1.1c0.4,0,0.7-0.1,1.1-0.3
			c0.5-0.3,0.9-0.8,1-1.3c0.2-0.6,0.1-1.2-0.2-1.7C84.5,56.1,83.8,55.6,83,55.6L83,55.6z"/>
	</g>
	<g id="r1_1_">
		<path style="fill:#008390;" d="M76,60.9c0.4,0,0.7,0.2,0.9,0.5c0.1,0.2,0.2,0.5,0.1,0.8c-0.1,0.3-0.2,0.5-0.5,0.6
			c-0.2,0.1-0.3,0.1-0.5,0.1c-0.4,0-0.7-0.2-0.9-0.5c-0.3-0.5-0.1-1.1,0.4-1.4C75.6,60.9,75.8,60.9,76,60.9 M76,59.9
			c-0.3,0-0.7,0.1-1,0.3c-1,0.6-1.3,1.8-0.7,2.8c0.4,0.7,1.1,1,1.8,1c0.3,0,0.7-0.1,1-0.3c1-0.6,1.3-1.8,0.7-2.8
			C77.4,60.2,76.7,59.9,76,59.9L76,59.9z"/>
	</g>
	<g id="triangle_1_">
		<path style="fill:#008390;" d="M68.6,64.8c0.6,0,0.9,0.4,1,0.6c0.1,0.2,0.3,0.6,0,1.1L66.4,72c-0.3,0.5-0.8,0.6-1,0.6
			s-0.7-0.1-1-0.6l-3.2-5.5c-0.3-0.5-0.1-1,0-1.1c0.1-0.2,0.4-0.6,1-0.6H68.6 M68.6,63.8h-6.4c-1.6,0-2.7,1.8-1.8,3.2l3.2,5.5
			c0.4,0.7,1.1,1.1,1.8,1.1s1.4-0.4,1.8-1.1l3.2-5.5C71.3,65.6,70.2,63.8,68.6,63.8L68.6,63.8z"/>
	</g>
</g>
<g id="solid">
	<circle id="b13" style="fill:#004146;" cx="45.1" cy="103.2" r="3.4"/>
	<path id="b12" style="fill:#004146;" d="M50.2,91.6c-1,0-1.9,0.5-2.4,1.4c-0.4,0.6-0.5,1.4-0.3,2.1c0.2,0.7,0.7,1.3,1.3,1.7
		c1.3,0.8,3.1,0.3,3.8-1c0.4-0.6,0.5-1.4,0.3-2.1c-0.2-0.7-0.7-1.3-1.3-1.7C51.2,91.7,50.7,91.6,50.2,91.6z"/>
	<path id="b11" style="fill:#004146;" d="M55.3,83.4c-0.8,0-1.5,0.4-1.9,1.1c-0.6,1.1-0.2,2.4,0.8,3c1,0.6,2.4,0.2,3-0.8
		c0.3-0.5,0.4-1.1,0.2-1.7c-0.2-0.6-0.5-1.1-1-1.3C56,83.5,55.7,83.4,55.3,83.4z"/>
	<circle id="b10" style="fill:#004146;" cx="59.3" cy="78.6" r="2"/>
	<path id="b9" style="fill:#004146;" d="M65.4,115.2c-2.5,0-4.6,2-4.6,4.6c0,2.5,2,4.6,4.6,4.6c2.5,0,4.6-2,4.6-4.6
		C70,117.2,67.9,115.2,65.4,115.2z"/>
	<circle id="b8" style="fill:#004146;" cx="65.4" cy="108.6" r="3.4"/>
	<path id="b7" style="fill:#004146;" d="M65.4,95.7c-1.5,0-2.8,1.3-2.8,2.8s1.3,2.8,2.8,2.8c1.5,0,2.8-1.3,2.8-2.8
		S67,95.7,65.4,95.7z"/>
	<path id="b6" style="fill:#004146;" d="M65.4,86.1c-1.2,0-2.2,1-2.2,2.2s1,2.2,2.2,2.2s2.2-1,2.2-2.2S66.6,86.1,65.4,86.1z"/>
	<circle id="b5" style="fill:#004146;" cx="65.4" cy="80.2" r="2"/>
	<circle id="b4" style="fill:#004146;" cx="85.7" cy="103.2" r="3.4"/>
	<path id="b3" style="fill:#004146;" d="M80.7,91.6c-0.5,0-1,0.1-1.4,0.4c-0.6,0.4-1.1,1-1.3,1.7c-0.2,0.7-0.1,1.5,0.3,2.1
		c0.5,0.9,1.4,1.4,2.4,1.4l0,0c0.5,0,1-0.1,1.4-0.4c0.6-0.4,1.1-1,1.3-1.7c0.2-0.7,0.1-1.5-0.3-2.1C82.6,92.1,81.7,91.6,80.7,91.6z"
		/>
	<path id="b2" style="fill:#004146;" d="M75.6,83.4c-0.4,0-0.8,0.1-1.1,0.3c-0.5,0.3-0.9,0.8-1,1.3c-0.2,0.6-0.1,1.2,0.2,1.7
		c0.6,1,2,1.4,3,0.8c1.1-0.6,1.4-2,0.8-3C77.1,83.8,76.4,83.4,75.6,83.4z"/>
	<circle id="b1" style="fill:#004146;" cx="71.5" cy="78.6" r="2"/>
	<circle id="t13" style="fill:#004146;" cx="85.7" cy="32.8" r="3.4"/>
	<path id="t12" style="fill:#004146;" d="M80.7,38.8c-1,0-1.9,0.5-2.4,1.4c-0.4,0.6-0.5,1.4-0.3,2.1c0.2,0.7,0.7,1.3,1.3,1.7
		c1.3,0.8,3.1,0.3,3.8-1c0.4-0.6,0.5-1.4,0.3-2.1c-0.2-0.7-0.7-1.3-1.3-1.7C81.6,38.9,81.1,38.8,80.7,38.8z"/>
	<path id="t11" style="fill:#004146;" d="M75.6,48.2c-0.8,0-1.5,0.4-1.9,1.1c-0.3,0.5-0.4,1.1-0.2,1.7c0.2,0.6,0.5,1.1,1,1.3
		c1,0.6,2.4,0.2,3-0.8c0.6-1.1,0.2-2.4-0.8-3C76.4,48.3,76,48.2,75.6,48.2z"/>
	<circle id="t10" style="fill:#004146;" cx="71.5" cy="57.4" r="2"/>
	<path id="t9" style="fill:#004146;" d="M65.4,11.5c-2.5,0-4.6,2-4.6,4.6s2,4.6,4.6,4.6c2.5,0,4.6-2,4.6-4.6S67.9,11.5,65.4,11.5z"
		/>
	<circle id="t8" style="fill:#004146;" cx="65.4" cy="27.4" r="3.4"/>
	<path id="t7" style="fill:#004146;" d="M65.4,34.7c-1.5,0-2.8,1.3-2.8,2.8s1.3,2.8,2.8,2.8c1.5,0,2.8-1.3,2.8-2.8
		S67,34.7,65.4,34.7z"/>
	<path id="t6" style="fill:#004146;" d="M65.4,45.5c-1.2,0-2.2,1-2.2,2.2s1,2.2,2.2,2.2s2.2-1,2.2-2.2S66.6,45.5,65.4,45.5z"/>
	<circle id="t5" style="fill:#004146;" cx="65.4" cy="55.8" r="2"/>
	<circle id="t4" style="fill:#004146;" cx="45.1" cy="32.8" r="3.4"/>
	<path id="t3" style="fill:#004146;" d="M50.2,38.8c-0.5,0-1,0.1-1.4,0.4c-1.3,0.8-1.8,2.5-1,3.8c0.5,0.9,1.4,1.4,2.4,1.4l0,0
		c0.5,0,1-0.1,1.4-0.4c0.6-0.4,1.1-1,1.3-1.7c0.2-0.7,0.1-1.5-0.3-2.1C52.1,39.3,51.2,38.8,50.2,38.8z"/>
	<path id="t2" style="fill:#004146;" d="M55.3,48.2c-0.4,0-0.8,0.1-1.1,0.3c-1.1,0.6-1.4,2-0.8,3c0.6,1,2,1.4,3,0.8
		c0.5-0.3,0.9-0.8,1-1.3c0.2-0.6,0.1-1.2-0.2-1.7C56.8,48.6,56.1,48.2,55.3,48.2z"/>
	<circle id="t1" style="fill:#004146;" cx="59.3" cy="57.4" r="2"/>
	<circle id="l13" style="fill:#008390;" cx="54.9" cy="74.1" r="2"/>
	<path id="l12" style="fill:#008390;" d="M47.8,75.9c-0.4,0-0.8,0.1-1.1,0.3c-0.5,0.3-0.9,0.8-1,1.3c-0.2,0.6-0.1,1.2,0.2,1.7
		c0.6,1,2,1.4,3,0.8c0.5-0.3,0.9-0.8,1-1.3c0.2-0.6,0.1-1.2-0.2-1.7C49.4,76.4,48.6,75.9,47.8,75.9z"/>
	<path id="l11" style="fill:#008390;" d="M39,80.4c-0.5,0-1,0.1-1.4,0.4c-1.3,0.8-1.8,2.5-1,3.8C37.1,85.5,38,86,39,86l0,0
		c0.5,0,1-0.1,1.4-0.4c1.3-0.8,1.8-2.5,1-3.8C41,81,40,80.4,39,80.4z"/>
	<circle id="l10" style="fill:#008390;" cx="30.2" cy="88.3" r="3.4"/>
	<circle id="l9" style="fill:#008390;" cx="53.2" cy="68" r="2"/>
	<path id="l8" style="fill:#008390;" d="M45.1,65.8c-1.2,0-2.2,1-2.2,2.2s1,2.2,2.2,2.2s2.2-1,2.2-2.2S46.3,65.8,45.1,65.8z"/>
	<path id="l7" style="fill:#008390;" d="M34.9,65.2c-1.5,0-2.8,1.3-2.8,2.8s1.3,2.8,2.8,2.8c1.5,0,2.8-1.3,2.8-2.8
		S36.5,65.2,34.9,65.2z"/>
	<circle id="l6" style="fill:#008390;" cx="24.8" cy="68" r="3.4"/>
	<path id="l5" style="fill:#008390;" d="M13.6,63.3c-2.5,0-4.6,2-4.6,4.6s2,4.6,4.6,4.6s4.6-2,4.6-4.6S16.1,63.3,13.6,63.3z"/>
	<circle id="l4" style="fill:#008390;" cx="54.9" cy="61.9" r="2"/>
	<path id="l3" style="fill:#008390;" d="M47.8,55.6c-0.8,0-1.5,0.4-1.9,1.1c-0.3,0.5-0.4,1.1-0.2,1.7s0.5,1.1,1,1.3
		c1,0.6,2.4,0.2,3-0.8c0.3-0.5,0.4-1.1,0.2-1.7c-0.2-0.6-0.5-1.1-1-1.3C48.6,55.7,48.2,55.6,47.8,55.6z"/>
	<path id="l2" style="fill:#008390;" d="M39,50c-1,0-1.9,0.5-2.4,1.4c-0.8,1.3-0.3,3.1,1,3.8c1.3,0.8,3.1,0.3,3.8-1
		c0.8-1.3,0.3-3.1-1-3.8C40,50.1,39.5,50,39,50z"/>
	<circle id="l1" style="fill:#008390;" cx="30.2" cy="47.7" r="3.4"/>
	<circle id="r13" style="fill:#008390;" cx="100.6" cy="88.3" r="3.4"/>
	<path id="r12" style="fill:#008390;" d="M91.8,80.4c-1,0-1.9,0.5-2.4,1.4c-0.4,0.6-0.5,1.4-0.3,2.1c0.2,0.7,0.7,1.3,1.3,1.7
		c1.3,0.7,3.1,0.3,3.8-1c0.8-1.3,0.3-3.1-1-3.8C92.8,80.6,92.3,80.4,91.8,80.4z"/>
	<path id="r11" style="fill:#008390;" d="M83,75.9c-0.8,0-1.5,0.4-1.9,1.1c-0.3,0.5-0.4,1.1-0.2,1.7c0.2,0.6,0.5,1.1,1,1.3
		c1,0.6,2.4,0.2,3-0.8c0.3-0.5,0.4-1.1,0.2-1.7c-0.2-0.6-0.5-1.1-1-1.3C83.8,76,83.4,75.9,83,75.9z"/>
	<circle id="r10" style="fill:#008390;" cx="76" cy="74.1" r="2"/>
	<path id="r9" style="fill:#008390;" d="M117.3,63.3c-2.5,0-4.6,2-4.6,4.6s2,4.6,4.6,4.6s4.6-2,4.6-4.6S119.8,63.3,117.3,63.3z"/>
	<circle id="r8" style="fill:#008390;" cx="106.1" cy="68" r="3.4"/>
	<path id="r7" style="fill:#008390;" d="M95.9,65.2c-1.5,0-2.8,1.3-2.8,2.8s1.3,2.8,2.8,2.8s2.8-1.3,2.8-2.8S97.4,65.2,95.9,65.2z"
		/>
	<path id="r6" style="fill:#008390;" d="M85.7,65.8c-1.2,0-2.2,1-2.2,2.2s1,2.2,2.2,2.2s2.2-1,2.2-2.2S87,65.8,85.7,65.8z"/>
	<circle id="r5" style="fill:#008390;" cx="77.6" cy="68" r="2"/>
	<circle id="r4" style="fill:#008390;" cx="100.6" cy="47.7" r="3.4"/>
	<path id="r3" style="fill:#008390;" d="M91.8,50c-0.5,0-1,0.1-1.4,0.4c-0.6,0.4-1.1,1-1.3,1.7c-0.2,0.7-0.1,1.5,0.3,2.1
		c0.5,0.9,1.4,1.4,2.4,1.4l0,0c0.5,0,1-0.1,1.4-0.4c1.3-0.8,1.8-2.5,1-3.8C93.7,50.5,92.8,50,91.8,50z"/>
	<path id="r2" style="fill:#008390;" d="M83,55.6c-0.4,0-0.8,0.1-1.1,0.3c-0.5,0.3-0.9,0.8-1,1.3c-0.2,0.6-0.1,1.2,0.2,1.7
		c0.6,1,2,1.4,3,0.8c0.5-0.3,0.9-0.8,1-1.3c0.2-0.6,0.1-1.2-0.2-1.7C84.5,56.1,83.8,55.6,83,55.6z"/>
	<circle id="r1" style="fill:#008390;" cx="76" cy="61.9" r="2"/>
	<path id="triangle" style="fill:#008390;" d="M70.5,67l-3.2,5.5c-0.8,1.4-2.9,1.4-3.7,0L60.4,67c-0.8-1.4,0.2-3.2,1.8-3.2h6.4
		C70.2,63.8,71.3,65.6,70.5,67z"/>
</g>
</svg>
