<?xml version="1.0" encoding="utf-8"?>
<!-- Generator: Adobe Illustrator 18.0.0, SVG Export Plug-In . SVG Version: 6.00 Build 0)  -->
<!DOCTYPE svg PUBLIC "-//W3C//DTD SVG 1.1//EN" "http://www.w3.org/Graphics/SVG/1.1/DTD/svg11.dtd">
<svg version="1.1" id="Layer_1" xmlns="http://www.w3.org/2000/svg" xmlns:xlink="http://www.w3.org/1999/xlink" x="0px" y="0px"
	 viewBox="0 0 495 144" style="enable-background:new 0 0 495 144;" xml:space="preserve">
<rect x="141.5" y="32.4" style="fill:none;" width="343.2" height="93.2"/>
<text transform="matrix(1 0 0 1 141.5371 107.3882)"><tspan x="0" y="0" style="fill:#FFFFFF; font-family:'Comfortaa-Light'; font-size:96; letter-spacing:-5;">c</tspan><tspan x="51.4" y="0" style="fill:#FFFFFF; font-family:'Comfortaa-Light'; font-size:96; letter-spacing:-3;">u</tspan><tspan x="112.8" y="0" style="fill:#FFFFFF; font-family:'Comfortaa-Light'; font-size:96; letter-spacing:-4;">t</tspan><tspan x="147.4" y="0" style="fill:#FFFFFF; font-family:'Comfortaa-Light'; font-size:96; letter-spacing:-3;">e</tspan><tspan x="202.7" y="0" style="fill:#FFFFFF; font-family:'Comfortaa-Light'; font-size:96; letter-spacing:-5;">b</tspan><tspan x="265.1" y="0" style="fill:#FFFFFF; font-family:'Comfortaa-Light'; font-size:96; letter-spacing:-4;">i</tspan><tspan x="287.9" y="0" style="fill:#FFFFFF; font-family:'Comfortaa-Light'; font-size:96; letter-spacing:-3;">t</tspan></text>
<circle id="b13" style="fill:#004146;" cx="50.1" cy="114.2" r="3.4"/>
<path id="b12" style="fill:#004146;" d="M55.2,102.6c-1,0-1.9,0.5-2.4,1.4c-0.4,0.6-0.5,1.4-0.3,2.1c0.2,0.7,0.7,1.3,1.3,1.7
	c1.3,0.8,3.1,0.3,3.8-1c0.4-0.6,0.5-1.4,0.3-2.1c-0.2-0.7-0.7-1.3-1.3-1.7C56.2,102.7,55.7,102.6,55.2,102.6z"/>
<path id="b11" style="fill:#004146;" d="M60.3,94.4c-0.8,0-1.5,0.4-1.9,1.1c-0.6,1.1-0.2,2.4,0.8,3c1,0.6,2.4,0.2,3-0.8
	c0.3-0.5,0.4-1.1,0.2-1.7c-0.2-0.6-0.5-1.1-1-1.3C61,94.5,60.7,94.4,60.3,94.4z"/>
<circle id="b10" style="fill:#004146;" cx="64.3" cy="89.6" r="2"/>
<path id="b9" style="fill:#004146;" d="M70.4,126.2c-2.5,0-4.6,2-4.6,4.6c0,2.5,2,4.6,4.6,4.6c2.5,0,4.6-2,4.6-4.6
	C75,128.2,72.9,126.2,70.4,126.2z"/>
<circle id="b8" style="fill:#004146;" cx="70.4" cy="119.6" r="3.4"/>
<path id="b7" style="fill:#004146;" d="M70.4,106.7c-1.5,0-2.8,1.3-2.8,2.8s1.3,2.8,2.8,2.8c1.5,0,2.8-1.3,2.8-2.8
	S72,106.7,70.4,106.7z"/>
<path id="b6" style="fill:#004146;" d="M70.4,97.1c-1.2,0-2.2,1-2.2,2.2s1,2.2,2.2,2.2s2.2-1,2.2-2.2S71.6,97.1,70.4,97.1z"/>
<circle id="b5" style="fill:#004146;" cx="70.4" cy="91.2" r="2"/>
<circle id="b4" style="fill:#004146;" cx="90.7" cy="114.2" r="3.4"/>
<path id="b3" style="fill:#004146;" d="M85.7,102.6c-0.5,0-1,0.1-1.4,0.4c-0.6,0.4-1.1,1-1.3,1.7c-0.2,0.7-0.1,1.5,0.3,2.1
	c0.5,0.9,1.4,1.4,2.4,1.4l0,0c0.5,0,1-0.1,1.4-0.4c0.6-0.4,1.1-1,1.3-1.7c0.2-0.7,0.1-1.5-0.3-2.1C87.6,103.1,86.7,102.6,85.7,102.6
	z"/>
<path id="b2" style="fill:#004146;" d="M80.6,94.4c-0.4,0-0.8,0.1-1.1,0.3c-0.5,0.3-0.9,0.8-1,1.3c-0.2,0.6-0.1,1.2,0.2,1.7
	c0.6,1,2,1.4,3,0.8c1.1-0.6,1.4-2,0.8-3C82.1,94.8,81.4,94.4,80.6,94.4z"/>
<circle id="b1" style="fill:#004146;" cx="76.5" cy="89.6" r="2"/>
<circle id="t13" style="fill:#004146;" cx="90.7" cy="43.8" r="3.4"/>
<path id="t12" style="fill:#004146;" d="M85.7,49.8c-1,0-1.9,0.5-2.4,1.4c-0.4,0.6-0.5,1.4-0.3,2.1c0.2,0.7,0.7,1.3,1.3,1.7
	c1.3,0.8,3.1,0.3,3.8-1c0.4-0.6,0.5-1.4,0.3-2.1c-0.2-0.7-0.7-1.3-1.3-1.7C86.6,49.9,86.1,49.8,85.7,49.8z"/>
<path id="t11" style="fill:#004146;" d="M80.6,59.2c-0.8,0-1.5,0.4-1.9,1.1c-0.3,0.5-0.4,1.1-0.2,1.7c0.2,0.6,0.5,1.1,1,1.3
	c1,0.6,2.4,0.2,3-0.8c0.6-1.1,0.2-2.4-0.8-3C81.4,59.3,81,59.2,80.6,59.2z"/>
<circle id="t10" style="fill:#004146;" cx="76.5" cy="68.4" r="2"/>
<path id="t9" style="fill:#004146;" d="M70.4,22.5c-2.5,0-4.6,2-4.6,4.6s2,4.6,4.6,4.6c2.5,0,4.6-2,4.6-4.6S72.9,22.5,70.4,22.5z"/>
<circle id="t8" style="fill:#004146;" cx="70.4" cy="38.4" r="3.4"/>
<path id="t7" style="fill:#004146;" d="M70.4,45.7c-1.5,0-2.8,1.3-2.8,2.8s1.3,2.8,2.8,2.8c1.5,0,2.8-1.3,2.8-2.8S72,45.7,70.4,45.7
	z"/>
<path id="t6" style="fill:#004146;" d="M70.4,56.5c-1.2,0-2.2,1-2.2,2.2s1,2.2,2.2,2.2s2.2-1,2.2-2.2S71.6,56.5,70.4,56.5z"/>
<circle id="t5" style="fill:#004146;" cx="70.4" cy="66.8" r="2"/>
<circle id="t4" style="fill:#004146;" cx="50.1" cy="43.8" r="3.4"/>
<path id="t3" style="fill:#004146;" d="M55.2,49.8c-0.5,0-1,0.1-1.4,0.4c-1.3,0.8-1.8,2.5-1,3.8c0.5,0.9,1.4,1.4,2.4,1.4l0,0
	c0.5,0,1-0.1,1.4-0.4c0.6-0.4,1.1-1,1.3-1.7c0.2-0.7,0.1-1.5-0.3-2.1C57.1,50.3,56.2,49.8,55.2,49.8z"/>
<path id="t2" style="fill:#004146;" d="M60.3,59.2c-0.4,0-0.8,0.1-1.1,0.3c-1.1,0.6-1.4,2-0.8,3c0.6,1,2,1.4,3,0.8
	c0.5-0.3,0.9-0.8,1-1.3c0.2-0.6,0.1-1.2-0.2-1.7C61.8,59.6,61.1,59.2,60.3,59.2z"/>
<circle id="t1" style="fill:#004146;" cx="64.3" cy="68.4" r="2"/>
<circle id="l13" style="fill:#008390;" cx="59.9" cy="85.1" r="2"/>
<path id="l12" style="fill:#008390;" d="M52.8,86.9c-0.4,0-0.8,0.1-1.1,0.3c-0.5,0.3-0.9,0.8-1,1.3c-0.2,0.6-0.1,1.2,0.2,1.7
	c0.6,1,2,1.4,3,0.8c0.5-0.3,0.9-0.8,1-1.3c0.2-0.6,0.1-1.2-0.2-1.7C54.4,87.4,53.6,86.9,52.8,86.9z"/>
<path id="l11" style="fill:#008390;" d="M44,91.4c-0.5,0-1,0.1-1.4,0.4c-1.3,0.8-1.8,2.5-1,3.8C42.1,96.5,43,97,44,97l0,0
	c0.5,0,1-0.1,1.4-0.4c1.3-0.8,1.8-2.5,1-3.8C46,92,45,91.4,44,91.4z"/>
<circle id="l10" style="fill:#008390;" cx="35.2" cy="99.3" r="3.4"/>
<circle id="l9" style="fill:#008390;" cx="58.2" cy="79" r="2"/>
<path id="l8" style="fill:#008390;" d="M50.1,76.8c-1.2,0-2.2,1-2.2,2.2s1,2.2,2.2,2.2s2.2-1,2.2-2.2S51.3,76.8,50.1,76.8z"/>
<path id="l7" style="fill:#008390;" d="M39.9,76.2c-1.5,0-2.8,1.3-2.8,2.8s1.3,2.8,2.8,2.8c1.5,0,2.8-1.3,2.8-2.8
	S41.5,76.2,39.9,76.2z"/>
<circle id="l6" style="fill:#008390;" cx="29.8" cy="79" r="3.4"/>
<path id="l5" style="fill:#008390;" d="M18.6,74.3c-2.5,0-4.6,2-4.6,4.6s2,4.6,4.6,4.6s4.6-2,4.6-4.6S21.1,74.3,18.6,74.3z"/>
<circle id="l4" style="fill:#008390;" cx="59.9" cy="72.9" r="2"/>
<path id="l3" style="fill:#008390;" d="M52.8,66.6c-0.8,0-1.5,0.4-1.9,1.1c-0.3,0.5-0.4,1.1-0.2,1.7c0.2,0.6,0.5,1.1,1,1.3
	c1,0.6,2.4,0.2,3-0.8c0.3-0.5,0.4-1.1,0.2-1.7c-0.2-0.6-0.5-1.1-1-1.3C53.6,66.7,53.2,66.6,52.8,66.6z"/>
<path id="l2" style="fill:#008390;" d="M44,61c-1,0-1.9,0.5-2.4,1.4c-0.8,1.3-0.3,3.1,1,3.8c1.3,0.8,3.1,0.3,3.8-1
	c0.8-1.3,0.3-3.1-1-3.8C45,61.1,44.5,61,44,61z"/>
<circle id="l1" style="fill:#008390;" cx="35.2" cy="58.7" r="3.4"/>
<circle id="r13" style="fill:#008390;" cx="105.6" cy="99.3" r="3.4"/>
<path id="r12" style="fill:#008390;" d="M96.8,91.4c-1,0-1.9,0.5-2.4,1.4c-0.4,0.6-0.5,1.4-0.3,2.1c0.2,0.7,0.7,1.3,1.3,1.7
	c1.3,0.7,3.1,0.3,3.8-1c0.8-1.3,0.3-3.1-1-3.8C97.8,91.6,97.3,91.4,96.8,91.4z"/>
<path id="r11" style="fill:#008390;" d="M88,86.9c-0.8,0-1.5,0.4-1.9,1.1c-0.3,0.5-0.4,1.1-0.2,1.7c0.2,0.6,0.5,1.1,1,1.3
	c1,0.6,2.4,0.2,3-0.8c0.3-0.5,0.4-1.1,0.2-1.7c-0.2-0.6-0.5-1.1-1-1.3C88.8,87,88.4,86.9,88,86.9z"/>
<circle id="r10" style="fill:#008390;" cx="81" cy="85.1" r="2"/>
<path id="r9" style="fill:#008390;" d="M122.3,74.3c-2.5,0-4.6,2-4.6,4.6s2,4.6,4.6,4.6s4.6-2,4.6-4.6S124.8,74.3,122.3,74.3z"/>
<circle id="r8" style="fill:#008390;" cx="111.1" cy="79" r="3.4"/>
<path id="r7" style="fill:#008390;" d="M100.9,76.2c-1.5,0-2.8,1.3-2.8,2.8s1.3,2.8,2.8,2.8s2.8-1.3,2.8-2.8S102.4,76.2,100.9,76.2z
	"/>
<path id="r6" style="fill:#008390;" d="M90.7,76.8c-1.2,0-2.2,1-2.2,2.2s1,2.2,2.2,2.2s2.2-1,2.2-2.2S92,76.8,90.7,76.8z"/>
<circle id="r5" style="fill:#008390;" cx="82.6" cy="79" r="2"/>
<circle id="r4" style="fill:#008390;" cx="105.6" cy="58.7" r="3.4"/>
<path id="r3" style="fill:#008390;" d="M96.8,61c-0.5,0-1,0.1-1.4,0.4c-0.6,0.4-1.1,1-1.3,1.7c-0.2,0.7-0.1,1.5,0.3,2.1
	c0.5,0.9,1.4,1.4,2.4,1.4l0,0c0.5,0,1-0.1,1.4-0.4c1.3-0.8,1.8-2.5,1-3.8C98.7,61.5,97.8,61,96.8,61z"/>
<path id="r2" style="fill:#008390;" d="M88,66.6c-0.4,0-0.8,0.1-1.1,0.3c-0.5,0.3-0.9,0.8-1,1.3c-0.2,0.6-0.1,1.2,0.2,1.7
	c0.6,1,2,1.4,3,0.8c0.5-0.3,0.9-0.8,1-1.3c0.2-0.6,0.1-1.2-0.2-1.7C89.5,67.1,88.8,66.6,88,66.6z"/>
<circle id="r1" style="fill:#008390;" cx="81" cy="72.9" r="2"/>
<path id="triangle" style="fill:#008390;" d="M75.5,78l-3.2,5.5c-0.8,1.4-2.9,1.4-3.7,0L65.4,78c-0.8-1.4,0.2-3.2,1.8-3.2h6.4
	C75.2,74.8,76.3,76.6,75.5,78z"/>
</svg>
