<svg version="1.1" id="Layer_1" xmlns="http://www.w3.org/2000/svg" xmlns:xlink="http://www.w3.org/1999/xlink" x="0px" y="0px"
	 viewBox="0 0 32 32" style="enable-background:new 0 0 32 32;" xml:space="preserve">
<circle id="circle-six" style="fill:#004146;" cx="16" cy="27.7" r="1.9"/>
<circle id="circle-noon_1_" style="fill:#004146;" cx="16" cy="4.3" r="1.9"/>
<circle id="circle-seven" style="fill:#004146;" cx="10.2" cy="26.1" r="1.9"/>
<circle id="circle-one" style="fill:#004146;" cx="21.8" cy="5.9" r="1.9"/>
<circle id="circle-eleven" style="fill:#004146;" cx="10.2" cy="5.9" r="1.9"/>
<circle id="circle-five" style="fill:#004146;" cx="21.8" cy="26.1" r="1.9"/>
<circle id="circle-nine" style="fill:#008390;" cx="4.3" cy="16" r="1.9"/>
<circle id="circle-three" style="fill:#008390;" cx="27.7" cy="16" r="1.9"/>
<circle id="circle-ten" style="fill:#008390;" cx="5.9" cy="10.2" r="1.9"/>
<circle id="circle-four" style="fill:#008390;" cx="26.1" cy="21.8" r="1.9"/>
<circle id="circle-two" style="fill:#008390;" cx="26.1" cy="10.2" r="1.9"/>
<circle id="circle-eight" style="fill:#008390;" cx="5.9" cy="21.8" r="1.9"/>
<path id="triangle" style="fill:#008390;" d="M20.8,15l-3.1,5.3c-0.8,1.4-2.8,1.4-3.5,0L11.2,15c-0.8-1.4,0.2-3.1,1.8-3.1h6.1
	C20.6,11.9,21.6,13.6,20.8,15z"/>
</svg>
