
<svg version="1.1" id="Layer_1" xmlns="http://www.w3.org/2000/svg" xmlns:xlink="http://www.w3.org/1999/xlink" x="0px" y="0px"
	 viewBox="0 0 288 288" style="enable-background:new 0 0 288 288;" xml:space="preserve">
<g>
	<circle style="fill:#014146;" cx="143.4" cy="238.6" r="7.9"/>
	<g>
		<path style="fill:#014146;" d="M143.4,208.2c-3.6,0-6.6,3-6.6,6.6c0,3.6,3,6.6,6.6,6.6c3.6,0,6.6-3,6.6-6.6
			C150,211.1,147,208.2,143.4,208.2z"/>
	</g>
	<g>
		<path style="fill:#014146;" d="M143.4,185.7c-2.9,0-5.2,2.3-5.2,5.2s2.3,5.2,5.2,5.2s5.2-2.3,5.2-5.2S146.3,185.7,143.4,185.7z"/>
	</g>
	<g>
		<path style="fill:#014146;" d="M143.4,90.3c-2.9,0-5.2,2.3-5.2,5.2s2.3,5.2,5.2,5.2s5.2-2.3,5.2-5.2S146.3,90.3,143.4,90.3z"/>
	</g>
	<g>
		<path style="fill:#014146;" d="M143.4,65.1c-3.6,0-6.6,3-6.6,6.6s3,6.6,6.6,6.6c3.6,0,6.6-3,6.6-6.6S147,65.1,143.4,65.1z"/>
	</g>
	<circle style="fill:#014146;" cx="143.4" cy="47.8" r="7.9"/>
	<circle style="fill:#014146;" cx="95.7" cy="225.8" r="7.9"/>
	<g>
		<path style="fill:#014146;" d="M107.7,198.6c-2.3,0-4.5,1.3-5.7,3.3c-0.9,1.5-1.1,3.3-0.7,5c0.5,1.7,1.5,3.1,3.1,4
			c3,1.8,7.2,0.6,9-2.4c0.9-1.5,1.1-3.3,0.7-5c-0.5-1.7-1.5-3.1-3.1-4C109.9,198.9,108.8,198.6,107.7,198.6z"/>
	</g>
	<g>
		<path style="fill:#014146;" d="M119.6,179.3c-1.9,0-3.6,1-4.5,2.6c-1.4,2.5-0.6,5.7,1.9,7.1c2.4,1.4,5.7,0.5,7.1-1.9
			c0.7-1.2,0.9-2.6,0.5-4c-0.4-1.3-1.2-2.5-2.4-3.2C121.4,179.5,120.5,179.3,119.6,179.3z"/>
	</g>
	<g>
		<path style="fill:#014146;" d="M167.3,96.7c-1.9,0-3.6,1-4.5,2.6c-0.7,1.2-0.9,2.6-0.5,4c0.4,1.3,1.2,2.5,2.4,3.2
			c2.4,1.4,5.7,0.5,7.1-1.9c1.4-2.5,0.6-5.7-1.9-7.1C169.1,96.9,168.2,96.7,167.3,96.7z"/>
	</g>
	<g>
		<path style="fill:#014146;" d="M179.2,74.7c-2.3,0-4.5,1.3-5.7,3.3c-0.9,1.5-1.1,3.3-0.7,5c0.5,1.7,1.5,3.1,3.1,4
			c3,1.8,7.2,0.6,9-2.4c0.9-1.5,1.1-3.3,0.7-5c-0.5-1.7-1.5-3.1-3.1-4C181.5,75,180.3,74.7,179.2,74.7z"/>
	</g>
	<circle style="fill:#014146;" cx="191.1" cy="60.6" r="7.9"/>
	<circle style="fill:#014146;" cx="95.7" cy="60.6" r="7.9"/>
	<g>
		<path style="fill:#014146;" d="M107.6,74.7c-1.1,0-2.3,0.3-3.3,0.9c-3.1,1.8-4.2,5.8-2.4,9c1.2,2,3.4,3.3,5.7,3.3l0,0
			c1.1,0,2.3-0.3,3.3-0.9c1.5-0.9,2.6-2.3,3.1-4c0.5-1.7,0.2-3.5-0.7-5C112.2,75.9,110,74.7,107.6,74.7z"/>
	</g>
	<g>
		<path style="fill:#014146;" d="M119.6,96.7c-0.9,0-1.8,0.2-2.6,0.7c-2.5,1.4-3.3,4.6-1.9,7.1c1.4,2.4,4.7,3.3,7.1,1.9
			c1.2-0.7,2.1-1.8,2.4-3.2c0.4-1.3,0.2-2.7-0.5-4C123.2,97.7,121.4,96.7,119.6,96.7z"/>
	</g>
	<g>
		<path style="fill:#014146;" d="M167.3,179.3c-0.9,0-1.8,0.2-2.6,0.7c-1.2,0.7-2.1,1.8-2.4,3.2c-0.4,1.3-0.2,2.7,0.5,4
			c1.4,2.4,4.7,3.3,7.1,1.9c2.5-1.4,3.3-4.6,1.9-7.1C170.9,180.3,169.1,179.3,167.3,179.3z"/>
	</g>
	<g>
		<path style="fill:#014146;" d="M179.2,198.6c-1.1,0-2.3,0.3-3.3,0.9c-1.5,0.9-2.6,2.3-3.1,4c-0.5,1.7-0.2,3.5,0.7,5
			c1.2,2,3.4,3.3,5.7,3.3l0,0c1.1,0,2.3-0.3,3.3-0.9c1.5-0.9,2.6-2.3,3.1-4c0.5-1.7,0.2-3.5-0.7-5
			C183.7,199.8,181.5,198.6,179.2,198.6z"/>
	</g>
	<circle style="fill:#014146;" cx="191.1" cy="225.8" r="7.9"/>
	<path style="fill:#068491;" d="M21.7,132.2c-5.9,0-10.7,4.8-10.7,10.7c0,5.9,4.8,10.7,10.7,10.7s10.7-4.8,10.7-10.7
		C32.4,137,27.6,132.2,21.7,132.2z"/>
	<circle style="fill:#068491;" cx="48" cy="143.2" r="7.9"/>
	<g>
		<path style="fill:#068491;" d="M71.9,136.6c-3.6,0-6.6,3-6.6,6.6c0,3.6,3,6.6,6.6,6.6c3.6,0,6.6-3,6.6-6.6
			C78.5,139.6,75.5,136.6,71.9,136.6z"/>
	</g>
	<g>
		<path style="fill:#068491;" d="M95.7,138c-2.9,0-5.2,2.3-5.2,5.2c0,2.9,2.3,5.2,5.2,5.2s5.2-2.3,5.2-5.2
			C100.9,140.3,98.6,138,95.7,138z"/>
	</g>
	<g>
		<path style="fill:#068491;" d="M191.1,138c-2.9,0-5.2,2.3-5.2,5.2c0,2.9,2.3,5.2,5.2,5.2c2.9,0,5.2-2.3,5.2-5.2
			C196.3,140.3,194,138,191.1,138z"/>
	</g>
	<g>
		<path style="fill:#068491;" d="M215,136.6c-3.6,0-6.6,3-6.6,6.6c0,3.6,3,6.6,6.6,6.6c3.6,0,6.6-3,6.6-6.6
			C221.5,139.6,218.6,136.6,215,136.6z"/>
	</g>
	<circle style="fill:#068491;" cx="238.8" cy="143.2" r="7.9"/>
	<path style="fill:#014146;" d="M143.4,253.9c-5.9,0-10.7,4.8-10.7,10.7c0,5.9,4.8,10.7,10.7,10.7c5.9,0,10.7-4.8,10.7-10.7
		C154.1,258.7,149.3,253.9,143.4,253.9z"/>
	<path style="fill:#014146;" d="M143.4,10.5c-5.9,0-10.7,4.8-10.7,10.7s4.8,10.7,10.7,10.7c5.9,0,10.7-4.8,10.7-10.7
		S149.3,10.5,143.4,10.5z"/>
	<path style="fill:#068491;" d="M265.1,132.2c-5.9,0-10.7,4.8-10.7,10.7c0,5.9,4.8,10.7,10.7,10.7c5.9,0,10.7-4.8,10.7-10.7
		C275.8,137,271,132.2,265.1,132.2z"/>
	<circle style="fill:#068491;" cx="60.8" cy="95.5" r="7.9"/>
	<g>
		<path style="fill:#068491;" d="M81.5,100.8c-2.3,0-4.5,1.3-5.7,3.3c-1.8,3.1-0.7,7.2,2.4,9c3,1.8,7.2,0.6,9-2.4
			c1.8-3.1,0.7-7.2-2.4-9C83.7,101.1,82.6,100.8,81.5,100.8z"/>
	</g>
	<g>
		<path style="fill:#068491;" d="M102.1,114.1c-1.9,0-3.6,1-4.5,2.6c-0.7,1.2-0.9,2.6-0.5,4c0.4,1.3,1.2,2.5,2.4,3.2
			c2.4,1.4,5.7,0.5,7.1-1.9c0.7-1.2,0.9-2.6,0.5-4c-0.4-1.3-1.2-2.5-2.4-3.2C103.9,114.4,103,114.1,102.1,114.1z"/>
	</g>
	<g>
		<path style="fill:#068491;" d="M184.7,161.8c-1.9,0-3.6,1-4.5,2.6c-0.7,1.2-0.9,2.6-0.5,4c0.4,1.3,1.2,2.5,2.4,3.2
			c2.4,1.4,5.7,0.5,7.1-1.9c0.7-1.2,0.9-2.6,0.5-4c-0.4-1.3-1.2-2.5-2.4-3.2C186.5,162.1,185.6,161.8,184.7,161.8z"/>
	</g>
	<g>
		<path style="fill:#068491;" d="M205.4,172.4c-2.3,0-4.5,1.3-5.7,3.3c-0.9,1.5-1.1,3.3-0.7,5c0.5,1.7,1.5,3.1,3.1,4
			c3,1.8,7.2,0.6,9-2.4c1.8-3.1,0.7-7.2-2.4-9C207.7,172.7,206.5,172.4,205.4,172.4z"/>
	</g>
	<circle style="fill:#068491;" cx="226" cy="190.9" r="7.9"/>
	<circle style="fill:#068491;" cx="226" cy="95.5" r="7.9"/>
	<g>
		<path style="fill:#068491;" d="M205.4,100.8c-1.1,0-2.3,0.3-3.3,0.9c-1.5,0.9-2.6,2.3-3.1,4c-0.5,1.7-0.2,3.5,0.7,5
			c1.2,2,3.4,3.3,5.7,3.3l0,0c1.1,0,2.3-0.3,3.3-0.9c3.1-1.8,4.2-5.8,2.4-9C209.9,102.1,207.7,100.8,205.4,100.8z"/>
	</g>
	<g>
		<path style="fill:#068491;" d="M184.7,114.1c-0.9,0-1.8,0.2-2.6,0.7c-1.2,0.7-2.1,1.8-2.4,3.2c-0.4,1.3-0.2,2.8,0.5,4
			c1.4,2.4,4.7,3.3,7.1,1.9c1.2-0.7,2.1-1.8,2.4-3.2c0.4-1.3,0.2-2.8-0.5-4C188.3,115.1,186.6,114.1,184.7,114.1z"/>
	</g>
	<g>
		<path style="fill:#068491;" d="M102.1,161.8c-0.9,0-1.8,0.2-2.6,0.7c-1.2,0.7-2.1,1.8-2.4,3.2c-0.4,1.3-0.2,2.8,0.5,4
			c1.4,2.4,4.7,3.3,7.1,1.9c1.2-0.7,2.1-1.8,2.4-3.2c0.4-1.3,0.2-2.8-0.5-4C105.7,162.8,104,161.8,102.1,161.8z"/>
	</g>
	<circle style="fill:#014146;" cx="143.4" cy="171.8" r="4.8"/>
	<circle style="fill:#014146;" cx="143.4" cy="114.6" r="4.8"/>
	<circle style="fill:#014146;" cx="129.1" cy="168" r="4.8"/>
	<circle style="fill:#014146;" cx="157.7" cy="118.4" r="4.8"/>
	<circle style="fill:#014146;" cx="129.1" cy="118.4" r="4.8"/>
	<circle style="fill:#014146;" cx="157.7" cy="168" r="4.8"/>
	<circle style="fill:#068491;" cx="114.8" cy="143.2" r="4.8"/>
	<circle style="fill:#068491;" cx="172" cy="143.2" r="4.8"/>
	<circle style="fill:#068491;" cx="118.6" cy="128.9" r="4.8"/>
	<circle style="fill:#068491;" cx="168.2" cy="157.5" r="4.8"/>
	<circle style="fill:#068491;" cx="168.2" cy="128.9" r="4.8"/>
	<circle style="fill:#068491;" cx="118.6" cy="157.5" r="4.8"/>
	<g>
		<path style="fill:#068491;" d="M81.5,172.4c-1.1,0-2.3,0.3-3.3,0.9c-3.1,1.8-4.2,5.8-2.4,9c1.2,2,3.4,3.3,5.7,3.3l0,0
			c1.1,0,2.3-0.3,3.3-0.9c3.1-1.8,4.2-5.8,2.4-9C86,173.6,83.8,172.4,81.5,172.4z"/>
	</g>
	<circle style="fill:#068491;" cx="60.8" cy="190.9" r="7.9"/>
	<path style="fill:#068491;" d="M155.2,140.8l-7.5,13c-1.9,3.3-6.7,3.3-8.7,0l-7.5-13c-1.9-3.3,0.5-7.5,4.3-7.5h15
		C154.8,133.3,157.2,137.4,155.2,140.8z"/>
</g>
</svg>
